<mxfile host="Electron" modified="2023-06-06T13:23:41.169Z" agent="Mozilla/5.0 (Windows NT 10.0; Win64; x64) AppleWebKit/537.36 (KHTML, like Gecko) draw.io/21.2.1 Chrome/112.0.5615.87 Electron/24.1.2 Safari/537.36" etag="binEVDG__NeeYGDT2tD7" version="21.2.1" type="device">
  <diagram name="第 1 页" id="bDPQ2a6fBn6DEcP7nSeg">
    <mxGraphModel dx="1434" dy="844" grid="1" gridSize="10" guides="1" tooltips="1" connect="1" arrows="1" fold="1" page="1" pageScale="1" pageWidth="827" pageHeight="1169" math="0" shadow="0">
      <root>
        <mxCell id="0" />
        <mxCell id="1" parent="0" />
        <mxCell id="fb9qPkmpyMVsVVygh-eu-3" style="edgeStyle=orthogonalEdgeStyle;rounded=0;orthogonalLoop=1;jettySize=auto;html=1;exitX=1;exitY=0.5;exitDx=0;exitDy=0;entryX=0;entryY=0.5;entryDx=0;entryDy=0;" edge="1" parent="1" source="fb9qPkmpyMVsVVygh-eu-1" target="fb9qPkmpyMVsVVygh-eu-2">
          <mxGeometry relative="1" as="geometry" />
        </mxCell>
        <mxCell id="fb9qPkmpyMVsVVygh-eu-1" value="输入&quot;计算机是什么&quot;" style="rounded=0;whiteSpace=wrap;html=1;" vertex="1" parent="1">
          <mxGeometry x="80" y="40" width="120" height="60" as="geometry" />
        </mxCell>
        <mxCell id="fb9qPkmpyMVsVVygh-eu-5" style="edgeStyle=orthogonalEdgeStyle;rounded=0;orthogonalLoop=1;jettySize=auto;html=1;exitX=1;exitY=0.5;exitDx=0;exitDy=0;entryX=0;entryY=0.5;entryDx=0;entryDy=0;" edge="1" parent="1" source="fb9qPkmpyMVsVVygh-eu-2" target="fb9qPkmpyMVsVVygh-eu-4">
          <mxGeometry relative="1" as="geometry" />
        </mxCell>
        <mxCell id="fb9qPkmpyMVsVVygh-eu-2" value="输入内容转：词向量【编码器】" style="rounded=0;whiteSpace=wrap;html=1;" vertex="1" parent="1">
          <mxGeometry x="260" y="40" width="120" height="60" as="geometry" />
        </mxCell>
        <mxCell id="fb9qPkmpyMVsVVygh-eu-10" style="edgeStyle=orthogonalEdgeStyle;rounded=0;orthogonalLoop=1;jettySize=auto;html=1;exitX=0.5;exitY=1;exitDx=0;exitDy=0;entryX=0.5;entryY=0;entryDx=0;entryDy=0;" edge="1" parent="1" source="fb9qPkmpyMVsVVygh-eu-4" target="fb9qPkmpyMVsVVygh-eu-6">
          <mxGeometry relative="1" as="geometry" />
        </mxCell>
        <mxCell id="fb9qPkmpyMVsVVygh-eu-4" value="计算第i个可能得token【假设是字级别】" style="rounded=0;whiteSpace=wrap;html=1;" vertex="1" parent="1">
          <mxGeometry x="440" y="40" width="120" height="60" as="geometry" />
        </mxCell>
        <mxCell id="fb9qPkmpyMVsVVygh-eu-11" style="edgeStyle=orthogonalEdgeStyle;rounded=0;orthogonalLoop=1;jettySize=auto;html=1;exitX=0;exitY=0.5;exitDx=0;exitDy=0;entryX=1;entryY=0.5;entryDx=0;entryDy=0;" edge="1" parent="1" source="fb9qPkmpyMVsVVygh-eu-6" target="fb9qPkmpyMVsVVygh-eu-8">
          <mxGeometry relative="1" as="geometry" />
        </mxCell>
        <mxCell id="fb9qPkmpyMVsVVygh-eu-6" value="token向量转成字&lt;br&gt;【解码器】" style="rounded=0;whiteSpace=wrap;html=1;" vertex="1" parent="1">
          <mxGeometry x="440" y="160" width="120" height="60" as="geometry" />
        </mxCell>
        <mxCell id="fb9qPkmpyMVsVVygh-eu-8" value="输出结束" style="rounded=0;whiteSpace=wrap;html=1;" vertex="1" parent="1">
          <mxGeometry x="260" y="160" width="120" height="60" as="geometry" />
        </mxCell>
        <mxCell id="fb9qPkmpyMVsVVygh-eu-16" style="edgeStyle=orthogonalEdgeStyle;rounded=0;orthogonalLoop=1;jettySize=auto;html=1;exitX=0.5;exitY=1;exitDx=0;exitDy=0;entryX=0.5;entryY=0;entryDx=0;entryDy=0;" edge="1" parent="1" source="fb9qPkmpyMVsVVygh-eu-12" target="fb9qPkmpyMVsVVygh-eu-15">
          <mxGeometry relative="1" as="geometry" />
        </mxCell>
        <mxCell id="fb9qPkmpyMVsVVygh-eu-12" value="word2vec" style="rounded=0;whiteSpace=wrap;html=1;" vertex="1" parent="1">
          <mxGeometry x="80" y="270" width="120" height="60" as="geometry" />
        </mxCell>
        <mxCell id="fb9qPkmpyMVsVVygh-eu-21" style="edgeStyle=orthogonalEdgeStyle;rounded=0;orthogonalLoop=1;jettySize=auto;html=1;exitX=0.5;exitY=1;exitDx=0;exitDy=0;entryX=0.5;entryY=0;entryDx=0;entryDy=0;" edge="1" parent="1" source="fb9qPkmpyMVsVVygh-eu-13" target="fb9qPkmpyMVsVVygh-eu-20">
          <mxGeometry relative="1" as="geometry" />
        </mxCell>
        <mxCell id="fb9qPkmpyMVsVVygh-eu-22" style="edgeStyle=orthogonalEdgeStyle;rounded=0;orthogonalLoop=1;jettySize=auto;html=1;exitX=1;exitY=0.5;exitDx=0;exitDy=0;" edge="1" parent="1" source="fb9qPkmpyMVsVVygh-eu-13" target="fb9qPkmpyMVsVVygh-eu-14">
          <mxGeometry relative="1" as="geometry" />
        </mxCell>
        <mxCell id="fb9qPkmpyMVsVVygh-eu-13" value="Transformer" style="rounded=0;whiteSpace=wrap;html=1;" vertex="1" parent="1">
          <mxGeometry x="440" y="270" width="120" height="60" as="geometry" />
        </mxCell>
        <mxCell id="fb9qPkmpyMVsVVygh-eu-14" value="chatgpt" style="rounded=0;whiteSpace=wrap;html=1;" vertex="1" parent="1">
          <mxGeometry x="600" y="370" width="120" height="60" as="geometry" />
        </mxCell>
        <mxCell id="fb9qPkmpyMVsVVygh-eu-15" value="单层神经网络、&lt;br&gt;霍夫曼编码" style="rounded=0;whiteSpace=wrap;html=1;" vertex="1" parent="1">
          <mxGeometry x="80" y="370" width="120" height="60" as="geometry" />
        </mxCell>
        <mxCell id="fb9qPkmpyMVsVVygh-eu-19" style="edgeStyle=orthogonalEdgeStyle;rounded=0;orthogonalLoop=1;jettySize=auto;html=1;exitX=0.5;exitY=1;exitDx=0;exitDy=0;" edge="1" parent="1" source="fb9qPkmpyMVsVVygh-eu-17" target="fb9qPkmpyMVsVVygh-eu-18">
          <mxGeometry relative="1" as="geometry" />
        </mxCell>
        <mxCell id="fb9qPkmpyMVsVVygh-eu-17" value="RNN" style="rounded=0;whiteSpace=wrap;html=1;" vertex="1" parent="1">
          <mxGeometry x="260" y="270" width="120" height="60" as="geometry" />
        </mxCell>
        <mxCell id="fb9qPkmpyMVsVVygh-eu-18" value="LSTM" style="rounded=0;whiteSpace=wrap;html=1;" vertex="1" parent="1">
          <mxGeometry x="260" y="370" width="120" height="60" as="geometry" />
        </mxCell>
        <mxCell id="fb9qPkmpyMVsVVygh-eu-20" value="Bert" style="rounded=0;whiteSpace=wrap;html=1;" vertex="1" parent="1">
          <mxGeometry x="440" y="370" width="120" height="60" as="geometry" />
        </mxCell>
      </root>
    </mxGraphModel>
  </diagram>
</mxfile>
